<?xml version="1.0" encoding="UTF-8"?>
<!DOCTYPE svg PUBLIC "-//W3C//DTD SVG 1.1//EN" "http://www.w3.org/Graphics/SVG/1.1/DTD/svg11.dtd">
<svg xmlns="http://www.w3.org/2000/svg" version="1.1" width="512px" height="512px" style="shape-rendering:geometricPrecision; text-rendering:geometricPrecision; image-rendering:optimizeQuality; fill-rule:evenodd; clip-rule:evenodd" xmlns:xlink="http://www.w3.org/1999/xlink">
<g><path style="opacity:0.999" fill="#222222" d="M 40.5,-0.5 C 183.833,-0.5 327.167,-0.5 470.5,-0.5C 491.833,5.5 505.5,19.1667 511.5,40.5C 511.5,183.833 511.5,327.167 511.5,470.5C 505.5,491.833 491.833,505.5 470.5,511.5C 327.167,511.5 183.833,511.5 40.5,511.5C 19.1667,505.5 5.5,491.833 -0.5,470.5C -0.5,327.167 -0.5,183.833 -0.5,40.5C 5.5,19.1667 19.1667,5.5 40.5,-0.5 Z"/></g>
<g><path style="opacity:1" fill="#fdfdfd" d="M 186.5,184.5 C 186.217,183.711 185.717,183.044 185,182.5C 184.175,192.342 184.342,202.009 185.5,211.5C 186.314,260.498 186.98,309.498 187.5,358.5C 201.85,363.173 216.184,367.839 230.5,372.5C 230.251,381.992 228.918,391.325 226.5,400.5C 185.82,401.913 145.153,403.58 104.5,405.5C 104.428,399.399 103.594,393.399 102,387.5C 101.333,382.5 101.333,377.5 102,372.5C 114.656,368.802 127.49,365.802 140.5,363.5C 142.72,332.878 143.72,302.212 143.5,271.5C 143.14,228.798 141.806,186.131 139.5,143.5C 126.791,141.041 114.124,138.375 101.5,135.5C 100.882,125.214 102.215,115.214 105.5,105.5C 134.224,105.423 162.891,104.089 191.5,101.5C 192.833,101.833 194.167,102.167 195.5,102.5C 237.768,170.716 282.268,237.382 329,302.5C 329.667,267.833 329.667,233.167 329,198.5C 328.995,182.105 328.161,165.772 326.5,149.5C 312.868,144.79 299.368,139.79 286,134.5C 284.779,124.918 285.779,115.585 289,106.5C 326.313,105.715 363.646,104.048 401,101.5C 402.5,101.833 404,102.167 405.5,102.5C 408.776,112.933 409.943,123.6 409,134.5C 398.982,138.061 388.816,141.228 378.5,144C 373.089,189.615 370.755,235.448 371.5,281.5C 371.535,309.842 372.035,338.176 373,366.5C 375.222,373.887 377.055,381.387 378.5,389C 377.252,391.257 375.585,393.257 373.5,395C 366.487,399.508 359.153,403.508 351.5,407C 346.705,409.033 341.705,409.866 336.5,409.5C 331.549,399.606 326.049,389.94 320,380.5C 290,337.167 260,293.833 230,250.5C 215.241,228.643 200.741,206.643 186.5,184.5 Z"/></g>
<g><path style="opacity:1" fill="#919191" d="M 186.5,184.5 C 185.507,193.318 185.173,202.318 185.5,211.5C 184.342,202.009 184.175,192.342 185,182.5C 185.717,183.044 186.217,183.711 186.5,184.5 Z"/></g>
</svg>
